              <svg width="480" height="312" viewBox="0 0 480 312" fill="none" xmlns="http://www.w3.org/2000/svg">
                <path d="M480 146.338C480.001 158.738 475.321 170.682 466.896 179.782C458.472 188.882 446.923 194.466 434.559 195.42C434.143 195.451 433.72 195.483 433.297 195.502V148.78C433.297 148.313 433.193 147.852 432.992 147.43C432.792 147.009 432.499 146.638 432.136 146.344C432.094 146.301 432.047 146.263 431.997 146.23C431.951 146.193 431.903 146.159 431.852 146.129C431.408 145.844 430.9 145.674 430.375 145.636C429.849 145.597 429.322 145.691 428.841 145.909L428.317 144.76C428.89 144.499 429.512 144.363 430.141 144.362L394.193 113.393C394.471 113.078 394.761 112.768 395.051 112.459C401.828 105.315 410.592 100.368 420.21 98.2558C429.828 96.144 439.859 96.9651 449.005 100.613C458.152 104.261 465.995 110.568 471.52 118.719C477.045 126.87 479.999 136.49 480 146.338Z" fill="#F2F2F2"/>
                <path d="M12.4823 179.904C12.3035 178.991 12.3272 178.05 12.5516 177.146C12.7761 176.243 13.1958 175.4 13.7813 174.677C14.3668 173.953 15.1038 173.367 15.9404 172.959C16.777 172.551 17.6928 172.332 18.6234 172.316L46.9999 138.537L54.0842 147.594L25.1646 179.032C25.0871 180.597 24.4383 182.079 23.341 183.198C22.2437 184.317 20.7742 184.994 19.211 185.101C17.6477 185.209 16.0993 184.739 14.8592 183.781C13.6191 182.824 12.7734 181.444 12.4823 179.904H12.4823Z" fill="#FFB8B8"/>
                <path d="M147.232 138.328C147.033 138.615 146.857 138.918 146.706 139.232L115.722 143.661L111.017 137.688L101.074 143.61L110.42 158.182L148.209 147.043C149.206 147.946 150.454 148.523 151.788 148.699C153.122 148.875 154.477 148.641 155.674 148.028C156.871 147.415 157.854 146.451 158.49 145.266C159.126 144.081 159.387 142.731 159.237 141.394C159.087 140.057 158.534 138.798 157.651 137.783C156.768 136.769 155.597 136.047 154.293 135.714C152.99 135.381 151.617 135.453 150.355 135.92C149.094 136.387 148.004 137.227 147.232 138.328Z" fill="#FFB8B8"/>
                <path d="M94.3057 251.191L99.7888 256.65L123.456 238.1L115.364 230.043L94.3057 251.191Z" fill="#FFB8B8"/>
                <path d="M105.293 272.271L88.0615 255.112L94.6908 248.455L105.265 258.983C106.139 259.854 106.834 260.888 107.308 262.027C107.783 263.166 108.028 264.387 108.031 265.621C108.034 266.855 107.793 268.077 107.324 269.218C106.854 270.359 106.164 271.396 105.293 272.27L105.293 272.271Z" fill="#2F2E41"/>
                <path d="M65.1604 303.556H72.898L76.5786 273.711H65.1592L65.1604 303.556Z" fill="#FFB8B8"/>
                <path d="M87.8203 310.74L63.5028 310.741L63.5024 301.345L78.4245 301.345C79.6583 301.344 80.8801 301.587 82.02 302.06C83.1599 302.532 84.1957 303.224 85.0682 304.096C85.9406 304.968 86.6328 306.004 87.105 307.144C87.5772 308.284 87.8203 309.506 87.8203 310.74Z" fill="#2F2E41"/>
                <path d="M63.4784 280.506L54.6652 215.509C53.2859 205.686 53.7139 195.694 55.9282 186.025C57.7367 178.255 60.18 172.872 63.1903 170.028C63.6654 169.582 64.2735 169.305 64.9215 169.238L94.0202 166.206C94.5807 166.149 95.1459 166.252 95.6499 166.504C96.154 166.756 96.5759 167.146 96.8666 167.629L97.8232 169.223C97.9393 169.416 98.0329 169.622 98.1023 169.837L104.255 188.91C104.346 189.198 104.495 189.465 104.691 189.695C104.886 189.926 105.126 190.115 105.396 190.252C115.082 195.197 146.547 211.891 144.746 219.094C143.054 225.861 127.214 236.834 122.4 240.036C121.91 240.364 121.332 240.537 120.742 240.532C120.153 240.528 119.578 240.346 119.093 240.011L111.101 234.543C110.71 234.276 110.39 233.919 110.166 233.503C109.942 233.087 109.82 232.623 109.812 232.15C109.804 231.678 109.909 231.21 110.118 230.786C110.328 230.362 110.636 229.995 111.016 229.714L116.528 225.653C116.865 225.405 117.128 225.069 117.289 224.682C117.449 224.295 117.501 223.871 117.439 223.457C117.377 223.042 117.203 222.653 116.936 222.33C116.669 222.007 116.319 221.763 115.924 221.624L86.3252 211.239C85.9928 211.122 85.6382 211.083 85.2884 211.125C84.9387 211.167 84.6033 211.289 84.3079 211.48C84.0125 211.672 83.765 211.929 83.5845 212.232C83.4039 212.534 83.2951 212.874 83.2665 213.225L77.809 279.926C77.7488 280.642 77.4316 281.311 76.9161 281.81C76.4006 282.309 75.7218 282.605 75.005 282.643L66.561 283.065C66.5096 283.068 66.4587 283.069 66.4077 283.069C65.6911 283.072 64.9981 282.813 64.4587 282.341C63.9194 281.869 63.5708 281.216 63.4784 280.506Z" fill="#2F2E41"/>
                <path d="M76.8237 112.393C85.3846 112.393 92.3246 105.453 92.3246 96.8918C92.3246 88.3309 85.3846 81.3909 76.8237 81.3909C68.2628 81.3909 61.3228 88.3309 61.3228 96.8918C61.3228 105.453 68.2628 112.393 76.8237 112.393Z" fill="#FFB8B8"/>
                <path d="M62.3252 167.373L50.915 125.741L51.1104 125.609C51.3555 125.444 75.9491 109.204 104.743 122.291L105.265 122.591L98.5042 165.802C98.3567 166.788 97.8697 167.692 97.1273 168.357C96.3848 169.023 95.4334 169.408 94.437 169.448L66.6155 170.518C66.5594 170.52 66.5035 170.521 66.4479 170.521C65.51 170.523 64.5977 170.216 63.8523 169.646C63.1069 169.077 62.5701 168.278 62.3252 167.373Z" fill="#CCCCCC"/>
                <path d="M50.4811 152.844L40.9782 141.916C40.5204 141.391 40.2627 140.721 40.2505 140.025C40.2382 139.328 40.4721 138.65 40.911 138.109L50.8452 125.837L58.4713 127.917L62.5143 142.068L55.1425 152.599C54.8853 152.969 54.5469 153.274 54.1531 153.493C53.7594 153.711 53.3208 153.836 52.8712 153.858C52.818 153.861 52.7651 153.862 52.7122 153.862C52.289 153.863 51.8705 153.772 51.4855 153.597C51.1004 153.421 50.7578 153.164 50.4811 152.844Z" fill="#CCCCCC"/>
                <path d="M103.031 150.567C102.582 150.545 102.143 150.42 101.749 150.202C101.356 149.984 101.017 149.678 100.76 149.308L93.3882 138.777L96.934 123.881L103.956 121.966L105.266 122.591L114.992 134.818C115.43 135.359 115.664 136.037 115.652 136.734C115.64 137.43 115.382 138.1 114.924 138.625L105.421 149.553C105.145 149.873 104.802 150.13 104.417 150.306C104.032 150.482 103.614 150.572 103.19 150.571C103.138 150.571 103.084 150.57 103.031 150.567Z" fill="#CCCCCC"/>
                <path d="M433.297 145.688C433.303 145.845 433.249 145.998 433.146 146.117C433.037 146.244 432.882 146.323 432.715 146.336C432.548 146.349 432.383 146.295 432.256 146.186L430.142 144.362L394.193 113.393L293.366 26.5199C292.79 26.0275 292.058 25.7575 291.301 25.7586C290.543 25.7598 289.812 26.0321 289.238 26.5262L153.459 144.489L152.235 145.549C152.188 145.591 152.134 145.625 152.077 145.65C151.976 145.695 151.865 145.712 151.755 145.7C151.597 145.684 151.451 145.61 151.345 145.492C151.29 145.43 151.248 145.358 151.221 145.279C151.194 145.201 151.183 145.118 151.188 145.035C151.194 144.953 151.215 144.872 151.252 144.798C151.288 144.723 151.339 144.657 151.401 144.602L151.572 144.451L288.411 25.5732C289.215 24.8826 290.239 24.5018 291.299 24.4995C292.359 24.4972 293.385 24.8735 294.192 25.5606L395.051 112.459L433.076 145.227C433.143 145.285 433.197 145.355 433.235 145.434C433.273 145.514 433.294 145.6 433.297 145.688Z" fill="#3F3D56"/>
                <path d="M356.635 164.325L354.975 159.755L349.257 143.977L336.938 110.004L323.167 72.0298L298.332 3.53438C297.844 2.19866 296.847 1.11062 295.559 0.508529C294.271 -0.0935652 292.797 -0.160643 291.459 0.321984L147.873 52.383C146.537 52.8701 145.449 53.8672 144.847 55.1555C144.244 56.4439 144.178 57.9184 144.661 59.2559L179.871 156.36L180.471 158.02L217.429 174.77L227.817 179.478L229.502 180.241L273.485 200.179L275.189 199.56L304.037 189.102L347.553 173.324L353.416 171.198C354.753 170.711 355.842 169.714 356.446 168.426C357.049 167.138 357.117 165.663 356.635 164.325Z" fill="#E6E6E6"/>
                <path d="M296.426 83.4405C295.71 81.4747 294.243 79.8731 292.348 78.987C290.453 78.1008 288.283 78.0025 286.316 78.7134L229.502 99.3194L202.068 109.266C201.093 109.618 200.197 110.159 199.431 110.858C198.666 111.557 198.045 112.399 197.606 113.338C197.166 114.277 196.916 115.293 196.869 116.328C196.822 117.364 196.98 118.398 197.333 119.373C197.686 120.347 198.228 121.242 198.928 122.007C199.627 122.772 200.471 123.392 201.41 123.831C202.349 124.269 203.365 124.519 204.401 124.564C205.436 124.61 206.471 124.451 207.445 124.097L229.502 116.101L291.699 93.551C293.665 92.8347 295.266 91.3682 296.153 89.4729C297.039 87.5776 297.137 85.4082 296.426 83.4405Z" fill="white"/>
                <path d="M306.43 111.033C305.713 109.067 304.247 107.466 302.351 106.58C300.456 105.693 298.287 105.595 296.319 106.306L286.694 109.796L229.502 130.535L212.071 136.852C210.105 137.566 208.504 139.032 207.618 140.927C206.732 142.822 206.635 144.991 207.348 146.957C208.06 148.923 209.524 150.526 211.418 151.414C213.312 152.301 215.481 152.4 217.448 151.69L229.502 147.316L301.703 121.137C301.867 121.08 302.024 121.011 302.182 120.942C304.015 120.137 305.474 118.666 306.263 116.826C307.051 114.986 307.111 112.915 306.43 111.033Z" fill="white"/>
                <path d="M316.54 138.916C315.825 136.951 314.36 135.349 312.466 134.463C310.571 133.576 308.403 133.478 306.436 134.189L279.443 143.978L258.546 151.557L229.502 162.084L222.182 164.741C220.49 165.358 219.059 166.533 218.126 168.073C217.193 169.613 216.813 171.426 217.05 173.211C217.123 173.742 217.25 174.265 217.429 174.77L227.817 179.478L229.502 178.866H229.515L282.22 159.756L311.813 149.026C313.78 148.312 315.382 146.845 316.269 144.95C317.155 143.054 317.253 140.884 316.54 138.916H316.54Z" fill="white"/>
                <path d="M257.385 56.3149C256.669 54.3492 255.202 52.7476 253.307 51.8615C251.412 50.9754 249.242 50.877 247.275 51.5879L214.646 63.415C212.68 64.1295 211.078 65.5951 210.193 67.4899C209.307 69.3846 209.21 71.5535 209.922 73.5199C210.635 75.4863 212.099 77.0894 213.993 77.9768C215.887 78.8642 218.056 78.9634 220.023 78.2527L230.348 74.5101L237.183 72.0298L252.658 66.4192C254.624 65.7043 256.225 64.2389 257.111 62.3446C257.998 60.4503 258.096 58.2818 257.385 56.3149Z" fill="white"/>
                <path d="M387.598 72.0298H234.867C233.966 72.0307 233.08 72.2583 232.29 72.6918C231.501 73.1253 230.833 73.7506 230.348 74.5101C229.795 75.37 229.501 76.3715 229.502 77.3943V180.242L273.485 200.179L279.683 202.987L289.471 207.424C290.045 207.683 290.666 207.817 291.295 207.817C291.924 207.817 292.546 207.683 293.119 207.424L302.908 202.987L333.543 189.102L362.095 176.158L392.962 162.173V77.3943C392.961 75.9718 392.396 74.6079 391.39 73.602C390.384 72.5962 389.02 72.0307 387.598 72.0298Z" fill="#DF0505"/>
                <path d="M356.042 143.977H266.423C264.385 143.978 262.427 144.768 260.958 146.181C259.49 147.594 258.626 149.521 258.546 151.557C258.536 151.66 258.532 151.763 258.534 151.866C258.537 153.958 259.369 155.963 260.848 157.441C262.326 158.92 264.331 159.752 266.423 159.755H356.042C358.134 159.755 360.141 158.924 361.62 157.445C363.099 155.965 363.931 153.959 363.931 151.866C363.931 149.774 363.099 147.767 361.62 146.288C360.141 144.808 358.134 143.977 356.042 143.977Z" fill="white"/>
                <path d="M361.148 175.205C359.725 173.988 357.914 173.321 356.042 173.324H266.423C264.33 173.324 262.324 174.156 260.844 175.635C259.365 177.115 258.534 179.121 258.534 181.213C258.534 183.306 259.365 185.312 260.844 186.792C262.324 188.271 264.33 189.102 266.423 189.102H333.542L362.094 176.158C361.806 175.814 361.49 175.496 361.148 175.205Z" fill="white"/>
                <path d="M279.683 202.987L289.471 207.424C290.044 207.683 290.666 207.817 291.295 207.817C291.924 207.817 292.546 207.683 293.119 207.424L302.908 202.987H279.683Z" fill="white"/>
                <path d="M335.997 110.345C335.442 108.826 334.433 107.515 333.108 106.588C331.783 105.662 330.205 105.164 328.588 105.164H293.876C292.361 105.165 290.878 105.602 289.604 106.424C288.331 107.245 287.32 108.416 286.694 109.796C286.227 110.818 285.986 111.929 285.987 113.053C285.99 115.144 286.822 117.149 288.301 118.628C289.78 120.107 291.785 120.939 293.876 120.942H328.588C329.857 120.942 331.107 120.636 332.233 120.049C333.359 119.463 334.326 118.614 335.053 117.574C335.781 116.534 336.246 115.333 336.41 114.075C336.575 112.817 336.433 111.537 335.997 110.345Z" fill="white"/>
                <path d="M330.481 189.102L299.847 202.987L292.596 206.275C292.187 206.459 291.744 206.554 291.295 206.554C290.847 206.554 290.404 206.459 289.995 206.275L282.744 202.987H279.683L289.471 207.424C290.045 207.683 290.666 207.817 291.295 207.817C291.924 207.817 292.546 207.683 293.119 207.424L302.908 202.987L333.542 189.102H330.481ZM330.481 189.102L299.847 202.987L292.596 206.275C292.187 206.459 291.744 206.554 291.295 206.554C290.847 206.554 290.404 206.459 289.995 206.275L282.744 202.987H279.683L289.471 207.424C290.045 207.683 290.666 207.817 291.295 207.817C291.924 207.817 292.546 207.683 293.119 207.424L302.908 202.987L333.542 189.102H330.481ZM330.481 189.102L299.847 202.987L292.596 206.275C292.187 206.459 291.744 206.554 291.295 206.554C290.847 206.554 290.404 206.459 289.995 206.275L282.744 202.987H279.683L289.471 207.424C290.045 207.683 290.666 207.817 291.295 207.817C291.924 207.817 292.546 207.683 293.119 207.424L302.908 202.987L333.542 189.102H330.481ZM433.297 145.688C433.064 145.456 432.809 145.249 432.534 145.069C431.914 144.667 431.202 144.428 430.465 144.374C429.728 144.32 428.99 144.453 428.318 144.76L361.148 175.205L330.481 189.102L299.847 202.987L292.595 206.275C292.187 206.459 291.744 206.554 291.295 206.554C290.847 206.554 290.404 206.459 289.995 206.275L282.744 202.987L275.189 199.56L229.515 178.866L229.502 178.859L217.05 173.211L179.871 156.36L154.273 144.76C154.013 144.639 153.74 144.548 153.459 144.489C152.841 144.334 152.196 144.321 151.572 144.451C150.574 144.655 149.677 145.197 149.032 145.986C148.387 146.775 148.033 147.761 148.031 148.78V307.273C148.033 308.444 148.498 309.567 149.327 310.396C150.155 311.224 151.278 311.69 152.449 311.691H430.142C431.313 311.69 432.436 311.224 433.264 310.396C434.092 309.567 434.558 308.444 434.56 307.273V148.78C434.562 147.624 434.108 146.513 433.297 145.688V145.688ZM433.297 307.273C433.297 308.11 432.964 308.912 432.373 309.504C431.781 310.096 430.978 310.428 430.142 310.429H152.449C151.612 310.428 150.81 310.096 150.218 309.504C149.626 308.912 149.294 308.11 149.293 307.273V148.78C149.294 148.253 149.426 147.734 149.679 147.271C149.931 146.808 150.296 146.415 150.739 146.129C151.051 145.93 151.394 145.785 151.755 145.7C151.861 145.677 151.969 145.661 152.077 145.65C152.2 145.632 152.324 145.624 152.449 145.625C152.898 145.625 153.341 145.722 153.749 145.909L180.471 158.02L217.429 174.77L227.817 179.478L229.502 180.241L273.485 200.179L279.683 202.987L289.471 207.424C290.045 207.683 290.666 207.817 291.295 207.817C291.924 207.817 292.546 207.683 293.119 207.424L302.908 202.987L333.542 189.102L362.094 176.158L428.841 145.909C429.322 145.691 429.849 145.597 430.375 145.636C430.901 145.674 431.409 145.844 431.852 146.129C431.903 146.159 431.951 146.193 431.997 146.23C432.048 146.263 432.094 146.301 432.136 146.344C432.499 146.638 432.792 147.009 432.993 147.431C433.194 147.852 433.298 148.313 433.297 148.78L433.297 307.273ZM330.481 189.102L299.847 202.987L292.596 206.275C292.187 206.459 291.744 206.554 291.295 206.554C290.847 206.554 290.404 206.459 289.995 206.275L282.744 202.987H279.683L289.471 207.424C290.045 207.683 290.666 207.817 291.295 207.817C291.924 207.817 292.546 207.683 293.119 207.424L302.908 202.987L333.542 189.102H330.481ZM330.481 189.102L299.847 202.987L292.596 206.275C292.187 206.459 291.744 206.554 291.295 206.554C290.847 206.554 290.404 206.459 289.995 206.275L282.744 202.987H279.683L289.471 207.424C290.045 207.683 290.666 207.817 291.295 207.817C291.924 207.817 292.546 207.683 293.119 207.424L302.908 202.987L333.542 189.102H330.481ZM227.817 179.478L229.502 180.241V178.866L227.817 179.478ZM330.481 189.102L299.847 202.987L292.596 206.275C292.187 206.459 291.744 206.554 291.295 206.554C290.847 206.554 290.404 206.459 289.995 206.275L282.744 202.987H279.683L289.471 207.424C290.045 207.683 290.666 207.817 291.295 207.817C291.924 207.817 292.546 207.683 293.119 207.424L302.908 202.987L333.542 189.102H330.481Z" fill="#3F3D56"/>
                <path d="M110.778 311.691H39.4612C39.2938 311.691 39.1333 311.625 39.0149 311.506C38.8966 311.388 38.8301 311.227 38.8301 311.06C38.8301 310.892 38.8966 310.732 39.0149 310.614C39.1333 310.495 39.2938 310.429 39.4612 310.429H110.778C110.945 310.429 111.106 310.495 111.224 310.614C111.342 310.732 111.409 310.892 111.409 311.06C111.409 311.227 111.342 311.388 111.224 311.506C111.106 311.625 110.945 311.691 110.778 311.691Z" fill="#3F3D56"/>
                <path d="M70.93 108.228C69.7657 107.637 68.7976 106.721 68.1428 105.592C67.4881 104.462 67.1748 103.167 67.2409 101.863C67.307 100.559 67.7496 99.302 68.5152 98.2443C69.2808 97.1867 70.3366 96.3736 71.5547 95.9036C76.2322 94.0985 81.476 97.7823 86.3792 96.735C91.2661 95.6911 94.0932 89.8486 92.9267 84.9895C91.7602 80.1303 87.5146 76.4703 82.833 74.7224C79.7755 73.5836 76.501 73.147 73.252 73.4449C70.0029 73.7427 66.8624 74.7673 64.0628 76.4429C61.2921 78.1676 58.9846 80.5429 57.3408 83.3623C55.6971 86.1818 54.7668 89.36 54.631 92.6208C54.5673 95.8845 55.3647 99.1074 56.9428 101.965C58.521 104.822 60.8241 107.214 63.6204 108.898C64.8666 109.616 66.3171 110.193 67.7187 109.869C68.8693 109.496 69.9533 108.942 70.93 108.228Z" fill="#2F2E41"/>
                <path d="M65.9068 76.0651C61.7821 70.5943 56.2142 66.1 49.7352 63.8717C43.2562 61.6435 35.8524 61.8224 29.7674 64.9713C23.6825 68.1202 19.1446 74.3742 18.6709 81.2092C17.8826 92.585 27.6028 102.255 28.6004 113.614C28.9166 117.215 28.3321 120.837 26.8998 124.156C25.4674 127.474 23.2321 130.384 20.3951 132.624C17.5582 134.863 14.2087 136.362 10.6484 136.985C7.08805 137.607 3.42873 137.335 0 136.191C2.44214 138.202 5.2736 139.685 8.31653 140.549C11.3595 141.412 14.5481 141.637 17.6821 141.209C20.811 140.74 23.7962 139.58 26.4212 137.813C29.0462 136.047 31.2452 133.719 32.8588 130.997C35.0464 127.196 35.9447 122.781 36.2937 118.409C36.8417 111.497 36.0995 104.543 34.1051 97.9023C33.0148 94.279 31.5362 90.5503 32.2276 86.8302C32.6217 84.8952 33.5757 83.1186 34.971 81.7213C36.3663 80.3239 38.1414 79.3674 40.0758 78.9704C43.202 78.3847 46.3982 79.3388 49.3832 80.4368C52.3682 81.5348 55.3777 82.8055 58.5574 82.8782C61.7371 82.9509 65.2005 81.4954 66.4293 78.5619L65.9068 76.0651Z" fill="#2F2E41"/>
                </svg>